<?xml version="1.0" encoding="UTF-8" standalone="no"?>
<svg
   xmlns:dc="http://purl.org/dc/elements/1.1/"
   xmlns:cc="http://creativecommons.org/ns#"
   xmlns:rdf="http://www.w3.org/1999/02/22-rdf-syntax-ns#"
   xmlns:svg="http://www.w3.org/2000/svg"
   xmlns="http://www.w3.org/2000/svg"
   id="svg2"
   version="1.1"
   width="64"
   height="64"
   viewBox="0 0 64 64">
  <metadata
     id="metadata8">
    <rdf:RDF>
      <cc:Work
         rdf:about="">
        <dc:format>image/svg+xml</dc:format>
        <dc:type
           rdf:resource="http://purl.org/dc/dcmitype/StillImage" />
        <dc:title></dc:title>
      </cc:Work>
    </rdf:RDF>
  </metadata>
  <defs
     id="defs6" />
  <rect
     style="color:#000000;clip-rule:nonzero;display:inline;overflow:visible;visibility:visible;opacity:1;isolation:auto;mix-blend-mode:normal;color-interpolation:sRGB;color-interpolation-filters:linearRGB;solid-color:#000000;solid-opacity:1;fill:#ffffff;fill-opacity:1;fill-rule:nonzero;stroke:none;stroke-width:1.20000005;stroke-linecap:butt;stroke-linejoin:miter;stroke-miterlimit:4;stroke-dasharray:none;stroke-dashoffset:0;stroke-opacity:1;color-rendering:auto;image-rendering:auto;shape-rendering:auto;text-rendering:auto;enable-background:accumulate"
     id="rect4263"
     width="64"
     height="64"
     x="0"
     y="-3.5527137e-15" />
  <path
     d="m 56,56 8,0 0,8 -8,0 z m -16,0 8,0 0,8 -8,0 z m -16,0 8,0 0,8 -8,0 z m -16,0 8,0 0,8 -8,0 z m 40,-8 8,0 0,8 -8,0 z m -16,0 8,0 0,8 -8,0 z m -16,0 8,0 0,8 -8,0 z m -16,0 8,0 0,8 -8,0 z m 56,-8 8,0 0,8 -8,0 z m -16,0 8,0 0,8 -8,0 z m -16,0 8,0 0,8 -8,0 z m -16,0 8,0 0,8 -8,0 z m 40,-8 8,0 0,8 -8,0 z m -16,0 8,0 0,8 -8,0 z m -16,0 8,0 0,8 -8,0 z m -16,0 8,0 0,8 -8,0 z m 56,-8 8,0 0,8 -8,0 z m -16,0 8,0 0,8 -8,0 z m -16,0 8,0 0,8 -8,0 z m -16,0 8,0 0,8 -8,0 z m 40,-8 8,0 0,8 -8,0 z m -16,0 8,0 0,8 -8,0 z m -16,0 8,0 0,8 -8,0 z m -16,0 8,0 0,8 -8,0 z m 56,-8 8,0 0,8 -8,0 z m -16,0 8,0 0,8 -8,0 z m -16,0 8,0 0,8 -8,0 z m -16,0 8,0 0,8 -8,0 z m 40,-8 8,0 0,8 -8,0 z m -16,0 8,0 0,8 -8,0 z m -16,0 8,0 0,8 -8,0 z M 0,0 8,0 8,8 0,8 Z"
     style="color:#000000;clip-rule:nonzero;display:inline;overflow:visible;visibility:visible;opacity:1;isolation:auto;mix-blend-mode:normal;color-interpolation:sRGB;color-interpolation-filters:linearRGB;solid-color:#000000;solid-opacity:1;fill:#f2f6ff;fill-opacity:1;fill-rule:nonzero;stroke:none;stroke-width:1.20000005;stroke-linecap:butt;stroke-linejoin:miter;stroke-miterlimit:4;stroke-dasharray:none;stroke-dashoffset:0;stroke-opacity:1;color-rendering:auto;image-rendering:auto;shape-rendering:auto;text-rendering:auto;enable-background:accumulate"
     id="rect4223" />
</svg>
