<?xml version="1.0" standalone="no"?>
<!DOCTYPE svg PUBLIC "-//W3C//DTD SVG 20010904//EN"
 "http://www.w3.org/TR/2001/REC-SVG-20010904/DTD/svg10.dtd">
<svg version="1.0" xmlns="http://www.w3.org/2000/svg"
 width="700.000000pt" height="700.000000pt" viewBox="0 0 700.000000 700.000000"
 preserveAspectRatio="xMidYMid meet">
<metadata>
Created by potrace 1.11, written by Peter Selinger 2001-2013
</metadata>
<g transform="translate(0.000000,700.000000) scale(0.100000,-0.100000)"
fill="#000000" stroke="none">
<path d="M1948 6535 c-2 -1 -97 -6 -213 -9 -115 -4 -239 -9 -275 -11 -36 -2
-101 -6 -145 -9 -72 -4 -154 -11 -240 -21 -16 -1 -47 -3 -68 -4 l-37 -1 2
-2327 3 -2328 315 -2 c173 -1 325 0 337 3 l23 4 0 838 c-1 460 0 869 0 909 0
69 1 72 23 68 12 -3 47 -7 77 -9 30 -3 80 -8 110 -11 30 -3 89 -7 130 -10 342
-21 395 -23 515 -24 l90 -1 60 -193 c33 -105 77 -246 98 -312 21 -66 40 -127
42 -135 2 -8 10 -35 18 -60 9 -25 36 -110 61 -190 24 -80 72 -233 106 -340 34
-107 98 -310 141 -450 44 -140 90 -286 103 -325 13 -38 33 -104 45 -145 13
-41 29 -93 36 -115 8 -22 30 -94 50 -160 20 -66 40 -129 45 -140 4 -11 20 -60
35 -110 98 -325 125 -379 210 -424 l50 -26 380 0 380 0 53 29 c67 37 112 99
145 196 14 41 134 422 267 845 133 424 248 788 255 810 7 22 19 63 28 90 14
45 36 115 154 490 19 61 44 137 55 170 11 33 21 67 23 75 2 8 40 132 85 275
89 281 113 359 158 505 17 52 96 304 177 560 144 455 185 589 185 601 0 9
-690 7 -696 -3 -5 -8 -101 -326 -109 -358 -1 -8 -10 -37 -18 -65 -14 -44 -81
-270 -122 -410 -9 -27 -24 -79 -35 -115 -20 -64 -57 -189 -325 -1095 -178
-600 -210 -708 -306 -1030 -45 -148 -87 -292 -95 -320 -8 -27 -16 -57 -19 -65
-80 -270 -125 -428 -158 -555 l-24 -90 -53 0 -53 0 -63 233 c-34 129 -83 302
-108 385 -24 84 -110 373 -191 642 -80 270 -156 526 -170 570 -13 44 -42 143
-65 220 -63 212 -104 350 -140 463 -35 113 -36 134 -7 132 13 -1 217 74 267
99 110 53 150 81 229 160 128 127 205 282 260 521 11 47 23 105 26 130 3 25 8
58 11 74 12 59 15 118 18 391 2 154 0 314 -4 355 -7 70 -11 94 -26 195 -3 22
-15 76 -25 120 -94 403 -281 618 -643 739 -77 26 -223 62 -287 70 -19 2 -59 7
-89 11 -30 4 -66 9 -80 13 -25 5 -986 13 -992 7z m798 -598 c225 -16 391 -74
489 -172 57 -56 75 -86 109 -178 49 -130 66 -245 70 -487 4 -211 -8 -346 -45
-480 -44 -165 -114 -264 -228 -324 l-70 -36 -27 87 c-14 49 -43 147 -64 218
-21 72 -67 225 -101 341 l-64 211 -347 0 c-250 0 -348 -4 -348 -12 0 -6 13
-51 29 -100 16 -50 47 -151 70 -225 23 -74 46 -146 51 -160 5 -14 30 -92 55
-175 26 -82 54 -172 62 -198 9 -26 13 -51 9 -54 -3 -4 -172 -7 -376 -7 l-370
-1 0 55 c0 109 -1 1428 0 1562 l0 137 287 1 c158 0 288 1 289 3 5 4 433 -1
520 -6z"/>
</g>
</svg>
