<?xml version="1.0" standalone="no"?>
<!DOCTYPE svg PUBLIC "-//W3C//DTD SVG 20010904//EN"
 "http://www.w3.org/TR/2001/REC-SVG-20010904/DTD/svg10.dtd">
<svg version="1.0" xmlns="http://www.w3.org/2000/svg"
 width="700.000000pt" height="700.000000pt" viewBox="0 0 700.000000 700.000000"
 preserveAspectRatio="xMidYMid meet">
<metadata>
Created by potrace 1.11, written by Peter Selinger 2001-2013
</metadata>
<g transform="translate(0.000000,700.000000) scale(0.100000,-0.100000)"
fill="#000000" stroke="none">
<path d="M1627 6994 c-1 -1 -110 -5 -242 -8 -132 -4 -278 -8 -325 -11 -112 -5
-317 -17 -355 -20 -16 -1 -75 -6 -130 -10 -55 -4 -109 -8 -120 -10 -11 -1 -25
-3 -30 -4 -8 -1 -11 -850 -11 -2789 l0 -2788 565 0 566 0 5 1165 5 1166 25 -1
c50 -3 166 -14 195 -19 17 -3 62 -7 100 -10 39 -2 120 -8 180 -12 221 -15 842
-8 941 11 11 2 47 7 79 11 83 10 264 49 360 78 244 75 456 218 558 378 99 156
174 358 213 579 4 25 8 47 9 50 2 8 18 133 20 160 19 207 25 575 10 695 -4 33
-9 85 -11 115 -2 30 -6 66 -9 80 -3 14 -8 45 -11 70 -19 156 -105 425 -169
533 -19 32 -35 62 -35 67 0 5 -3 10 -7 12 -5 2 -27 28 -50 59 -117 153 -314
270 -592 349 -41 12 -83 24 -95 26 -12 2 -43 8 -71 14 -27 5 -63 12 -80 15
-45 8 -250 33 -330 41 -62 6 -1152 14 -1158 8z m918 -878 c33 -5 69 -10 80
-11 11 -2 49 -11 85 -20 291 -76 397 -278 398 -758 0 -496 -101 -693 -398
-777 -41 -11 -95 -23 -120 -26 -25 -3 -56 -8 -70 -11 -14 -3 -238 -6 -497 -7
l-473 -2 0 808 0 807 148 3 c289 6 788 2 847 -6z"/>
<path d="M5186 5106 c-8 -28 -17 -62 -20 -76 -3 -14 -7 -34 -10 -45 -8 -35
-296 -1189 -303 -1215 -3 -14 -7 -29 -9 -35 -54 -215 -86 -344 -90 -361 -2
-12 -22 -93 -44 -180 -23 -88 -43 -168 -45 -179 -2 -11 -4 -20 -5 -20 -1 0 -3
-7 -5 -16 -1 -8 -28 -118 -60 -245 -31 -126 -58 -236 -61 -244 -2 -8 -13 -53
-25 -100 -11 -47 -22 -92 -24 -100 -2 -8 -15 -62 -30 -120 -15 -58 -28 -112
-30 -120 -2 -8 -39 -159 -84 -335 -66 -266 -105 -426 -126 -525 -2 -8 -10 -42
-18 -75 -8 -33 -23 -104 -33 -157 l-18 -98 -93 0 c-66 0 -95 4 -97 12 -3 12
-39 179 -50 238 -3 14 -12 57 -21 97 -24 111 -485 1945 -491 1955 -3 5 -238 8
-550 7 l-545 -1 7 -22 c3 -11 12 -41 20 -66 31 -104 185 -637 190 -658 2 -13
11 -42 19 -65 8 -23 27 -89 44 -147 56 -199 101 -355 126 -435 13 -44 31 -105
39 -135 8 -30 28 -100 44 -155 16 -55 33 -113 37 -130 5 -16 9 -32 10 -35 1
-3 9 -32 19 -65 10 -33 26 -87 36 -120 30 -102 50 -169 55 -190 2 -11 34 -121
71 -245 36 -124 67 -232 69 -240 4 -15 51 -167 64 -205 30 -90 126 -189 219
-227 l57 -23 600 -2 c374 -2 616 1 643 7 102 24 186 84 244 172 44 68 51 87
148 428 45 157 100 346 121 420 22 74 42 142 44 150 5 23 211 737 252 875 49
167 164 566 170 590 3 11 35 119 70 240 35 121 66 227 68 235 4 17 134 469
265 920 51 173 95 329 100 345 12 48 127 445 176 611 24 83 44 153 44 156 0 3
-263 5 -585 5 l-585 0 -14 -51z"/>
</g>
</svg>
