<?xml version="1.0" standalone="no"?>
<!DOCTYPE svg PUBLIC "-//W3C//DTD SVG 20010904//EN"
 "http://www.w3.org/TR/2001/REC-SVG-20010904/DTD/svg10.dtd">
<svg version="1.0" xmlns="http://www.w3.org/2000/svg"
 width="700.000000pt" height="700.000000pt" viewBox="0 0 700.000000 700.000000"
 preserveAspectRatio="xMidYMid meet">
<metadata>
Created by potrace 1.11, written by Peter Selinger 2001-2013
</metadata>
<g transform="translate(0.000000,700.000000) scale(0.100000,-0.100000)"
fill="#000000" stroke="none">
<path d="M2457 6494 c-1 -1 -182 -4 -402 -8 -220 -3 -422 -8 -450 -10 -27 -3
-108 -7 -180 -11 -71 -4 -146 -8 -165 -10 -19 -2 -80 -7 -135 -10 -55 -4 -101
-9 -103 -10 -2 -2 -4 -4248 -2 -4522 l0 -43 290 0 290 0 0 88 c0 48 0 459 0
914 0 649 3 826 13 823 6 -2 46 -6 87 -9 41 -4 85 -8 96 -10 12 -3 72 -7 134
-11 62 -4 120 -8 129 -10 20 -4 378 -16 492 -17 76 -1 76 -1 87 -32 6 -17 106
-335 222 -706 198 -633 263 -840 310 -985 10 -33 78 -249 150 -480 243 -777
257 -819 290 -857 58 -68 76 -71 440 -72 407 -1 418 0 484 68 l51 52 144 459
c79 253 154 492 166 530 12 39 43 138 69 220 26 83 53 168 61 190 13 38 44
140 155 495 28 91 57 183 65 205 7 22 34 108 60 190 25 83 50 161 55 175 5 14
25 79 45 145 57 184 95 306 110 350 7 22 34 108 60 190 26 83 67 215 93 295
25 80 47 150 48 155 1 6 34 111 74 235 39 124 89 281 110 350 21 69 45 143 53
165 8 22 17 52 21 68 l6 27 -299 0 -300 0 -35 -112 c-19 -62 -51 -169 -71
-238 -51 -174 -84 -285 -150 -505 -31 -104 -67 -226 -80 -270 -33 -115 -85
-290 -155 -525 -34 -113 -83 -279 -110 -370 -26 -91 -69 -235 -95 -320 -45
-148 -71 -237 -80 -270 -2 -8 -14 -46 -25 -85 -12 -38 -25 -83 -30 -100 -4
-16 -32 -109 -60 -205 -29 -96 -81 -272 -117 -390 -35 -118 -89 -305 -120
-415 -30 -110 -63 -225 -72 -255 l-16 -55 -87 0 c-49 0 -88 1 -88 2 0 1 -7 28
-16 60 -8 32 -17 65 -19 73 -24 98 -121 444 -181 643 -73 242 -144 484 -166
557 -5 19 -30 103 -55 185 -24 83 -65 218 -89 300 -24 83 -51 171 -59 197 -8
26 -55 186 -105 355 -50 169 -95 318 -100 330 -8 20 -5 23 45 37 29 9 58 16
64 16 43 0 240 84 321 136 179 117 309 331 365 603 8 37 33 183 39 228 24 173
24 584 1 758 -28 204 -57 331 -104 451 -119 297 -322 456 -696 544 -75 17
-111 24 -210 36 -22 3 -51 7 -65 10 -49 8 -495 24 -503 18z m383 -516 c14 -4
41 -9 60 -12 182 -28 350 -118 422 -227 95 -143 138 -339 142 -644 5 -385 -60
-634 -201 -771 -76 -74 -246 -142 -424 -169 -24 -4 -313 -9 -641 -12 l-597 -4
0 917 c0 504 2 920 4 924 5 8 1202 6 1235 -2z"/>
</g>
</svg>
