<?xml version="1.0" standalone="no"?>
<!DOCTYPE svg PUBLIC "-//W3C//DTD SVG 20010904//EN"
 "http://www.w3.org/TR/2001/REC-SVG-20010904/DTD/svg10.dtd">
<svg version="1.0" xmlns="http://www.w3.org/2000/svg"
 width="700.000000pt" height="700.000000pt" viewBox="0 0 700.000000 700.000000"
 preserveAspectRatio="xMidYMid meet">
<metadata>
Created by potrace 1.11, written by Peter Selinger 2001-2013
</metadata>
<g transform="translate(0.000000,700.000000) scale(0.100000,-0.100000)"
fill="#000000" stroke="none">
<path d="M2287 6834 c-1 -1 -195 -4 -432 -8 -236 -4 -461 -9 -500 -10 -38 -2
-140 -7 -225 -11 -85 -3 -175 -8 -200 -10 -25 -2 -88 -7 -140 -11 -52 -4 -106
-8 -120 -9 -14 -1 -43 -3 -66 -4 l-41 -1 0 -2547 c0 -1402 2 -2552 4 -2558 2
-7 198 -10 561 -9 l557 0 3 948 2 948 68 -6 c37 -4 81 -9 97 -12 31 -5 68 -8
245 -20 57 -4 120 -8 140 -9 19 -1 51 -3 71 -4 34 -1 36 -3 52 -58 40 -139
119 -409 122 -423 6 -21 25 -87 95 -325 33 -115 63 -217 65 -225 2 -8 51 -179
110 -380 58 -201 135 -466 171 -590 36 -124 76 -261 89 -305 13 -44 67 -230
120 -413 53 -183 104 -352 115 -377 57 -134 168 -216 315 -232 39 -4 313 -8
610 -7 586 1 606 2 694 58 98 63 153 148 200 311 143 493 267 921 282 975 10
36 45 160 79 275 34 116 65 224 69 240 5 17 61 212 126 435 64 223 130 450
145 505 16 55 70 242 120 415 51 173 93 322 95 330 2 8 103 358 224 777 122
419 221 768 221 776 0 11 -96 13 -577 13 l-578 -1 -51 -205 c-28 -113 -52
-209 -54 -215 -4 -14 -60 -236 -65 -260 -2 -11 -61 -247 -130 -525 -70 -278
-128 -512 -130 -520 -2 -8 -92 -368 -200 -800 -108 -432 -198 -796 -201 -810
-3 -14 -12 -52 -21 -85 -8 -33 -17 -69 -19 -79 -2 -10 -8 -33 -14 -51 -6 -18
-12 -41 -15 -51 -2 -10 -28 -127 -59 -259 -30 -132 -60 -271 -67 -310 -7 -38
-15 -73 -18 -77 -7 -8 -69 -11 -147 -9 -42 1 -42 1 -49 49 -5 26 -9 52 -11 57
-1 6 -7 33 -13 60 -6 28 -13 60 -15 73 -21 100 -92 391 -177 727 -55 220 -103
414 -106 430 -3 17 -9 38 -14 48 -5 9 -8 17 -5 17 3 0 0 15 -5 33 -6 17 -12
40 -14 50 -2 9 -11 45 -20 80 -9 34 -18 69 -20 77 -2 8 -15 62 -30 120 -15 58
-28 112 -30 120 -2 8 -24 98 -50 200 -26 102 -48 192 -50 200 -2 8 -11 44 -20
80 -9 36 -19 76 -22 89 -2 14 -6 28 -8 31 -3 5 97 41 125 45 28 4 152 54 213
85 225 115 346 246 451 490 24 55 66 182 72 215 3 17 11 55 19 86 8 31 17 73
20 95 6 49 17 124 21 146 18 102 25 595 10 763 -28 324 -82 533 -193 746 -128
248 -331 395 -678 493 -92 26 -260 60 -350 71 -27 3 -63 8 -80 10 -79 13 -353
26 -593 28 -96 1 -174 1 -175 1z m403 -878 c405 -47 537 -237 544 -779 3 -198
-24 -390 -69 -501 -12 -28 -13 -26 -33 50 -12 44 -47 183 -78 309 -31 127 -59
232 -61 235 -3 4 -1164 9 -1163 5 0 0 60 -206 134 -457 l133 -458 -204 0 -203
0 0 800 0 799 88 3 c178 6 849 2 912 -6z"/>
</g>
</svg>
