<?xml version="1.0" standalone="no"?>
<!DOCTYPE svg PUBLIC "-//W3C//DTD SVG 20010904//EN"
 "http://www.w3.org/TR/2001/REC-SVG-20010904/DTD/svg10.dtd">
<svg version="1.0" xmlns="http://www.w3.org/2000/svg"
 width="700.000000pt" height="700.000000pt" viewBox="0 0 700.000000 700.000000"
 preserveAspectRatio="xMidYMid meet">
<metadata>
Created by potrace 1.11, written by Peter Selinger 2001-2013
</metadata>
<g transform="translate(0.000000,700.000000) scale(0.100000,-0.100000)"
fill="#000000" stroke="none">
<path d="M296 6661 c-2 -9 -7 -38 -11 -64 -4 -27 -8 -56 -10 -65 -4 -22 -24
-159 -29 -197 -2 -16 -7 -46 -10 -65 -11 -68 -45 -285 -50 -325 -3 -22 -9 -57
-12 -77 l-6 -38 729 -1 c400 -1 732 -1 737 0 4 1 6 -13 2 -31 -3 -18 -8 -51
-11 -73 -3 -22 -8 -51 -10 -65 -3 -14 -7 -38 -9 -55 -7 -46 -27 -177 -32 -205
-2 -14 -6 -43 -9 -65 -3 -22 -7 -51 -10 -65 -3 -14 -7 -40 -10 -57 -3 -18 -7
-45 -10 -60 -2 -16 -11 -75 -20 -133 -8 -58 -17 -114 -19 -125 -2 -11 -7 -42
-10 -70 -4 -27 -16 -106 -27 -175 -49 -313 -47 -295 -54 -350 -7 -52 -63 -410
-70 -451 -3 -15 -7 -47 -10 -70 -3 -24 -7 -55 -10 -69 -3 -14 -7 -38 -9 -55
-7 -51 -18 -119 -22 -140 -2 -10 -6 -37 -9 -60 -4 -22 -8 -51 -10 -65 -9 -52
-66 -426 -71 -460 -3 -19 -7 -46 -9 -60 -3 -14 -7 -43 -11 -65 -6 -46 -7 -55
-28 -185 -8 -52 -17 -115 -21 -140 -3 -25 -10 -70 -15 -100 -9 -50 -15 -90
-25 -160 -6 -42 -17 -114 -21 -135 -2 -11 -7 -40 -10 -65 -3 -25 -8 -52 -9
-62 -2 -9 -6 -38 -10 -65 -3 -26 -10 -70 -15 -98 -5 -27 -12 -68 -15 -90 -3
-22 -8 -54 -11 -72 l-6 -31 516 0 c573 0 520 -7 530 68 5 40 13 90 26 170 5
30 12 75 15 100 4 25 15 99 25 165 11 66 22 136 24 155 3 19 10 67 16 105 6
39 13 86 16 105 2 19 9 60 14 90 5 30 12 71 14 90 5 38 54 359 61 400 2 14 11
72 20 130 9 58 18 116 20 130 4 24 40 260 50 330 5 32 20 126 30 190 2 14 7
45 10 70 3 25 8 52 10 60 2 8 6 38 10 65 3 28 15 106 26 175 11 69 22 143 25
165 3 22 7 51 10 65 2 14 9 57 15 97 5 39 12 82 14 94 3 13 7 41 10 64 3 22
12 78 20 125 7 47 16 106 20 131 3 25 8 57 10 70 2 13 6 42 10 64 3 22 12 83
21 135 14 91 17 112 29 198 3 20 10 62 15 92 5 30 12 75 15 100 3 25 12 83 20
130 8 47 15 88 15 93 0 4 326 7 724 7 682 0 725 1 729 18 3 9 8 39 12 65 4 27
8 57 10 66 2 10 6 42 10 72 4 30 8 56 10 59 2 3 6 34 10 70 3 35 8 67 10 70 1
3 6 28 9 55 7 52 12 89 21 140 6 32 11 67 19 125 3 19 8 51 11 71 l6 36 -1975
0 c-1796 0 -1976 -2 -1980 -16z"/>
<path d="M3396 5451 c-2 -3 -7 -31 -10 -61 -4 -30 -11 -80 -16 -110 -5 -30
-12 -75 -15 -100 -3 -25 -7 -56 -10 -70 -2 -14 -7 -50 -11 -80 -3 -30 -7 -57
-9 -60 -2 -3 -6 -34 -10 -70 -3 -35 -8 -67 -10 -70 -1 -3 -6 -27 -9 -55 -11
-87 -17 -128 -26 -190 -5 -33 -12 -80 -15 -105 -3 -25 -8 -52 -10 -60 -2 -8
-7 -40 -10 -70 -4 -30 -19 -143 -35 -250 -16 -107 -32 -220 -35 -250 -4 -30
-8 -57 -10 -60 -2 -3 -6 -34 -10 -70 -3 -35 -8 -67 -10 -70 -1 -3 -6 -30 -9
-61 -4 -31 -8 -66 -10 -76 -3 -11 -7 -44 -11 -74 -3 -30 -8 -61 -10 -69 -2 -8
-7 -39 -10 -69 -4 -30 -8 -63 -11 -74 -2 -11 -6 -43 -9 -71 -3 -28 -8 -60 -10
-71 -3 -11 -7 -38 -10 -60 -3 -22 -10 -67 -15 -100 -5 -33 -12 -82 -15 -110
-4 -27 -8 -61 -10 -75 -5 -29 -42 -287 -50 -345 -3 -22 -7 -53 -10 -70 -3 -16
-7 -46 -10 -65 -3 -19 -12 -82 -20 -140 -9 -58 -18 -123 -20 -145 -3 -22 -7
-51 -10 -65 -3 -14 -7 -43 -10 -65 -5 -40 -23 -168 -31 -216 -2 -15 -6 -47 -9
-70 -3 -24 -7 -55 -10 -69 -2 -14 -7 -45 -10 -70 -4 -25 -8 -56 -10 -70 -3
-14 -16 -106 -30 -205 -27 -192 -33 -235 -40 -275 -2 -14 -9 -61 -15 -105 -6
-44 -12 -91 -14 -105 -8 -47 -21 -140 -31 -215 -8 -61 -14 -100 -21 -141 l-6
-30 500 0 c275 1 503 3 505 6 3 3 8 29 12 59 4 30 8 62 10 71 2 9 6 41 10 71
3 30 8 61 10 69 2 8 6 38 10 65 3 28 8 62 10 76 3 14 7 41 9 60 11 79 37 266
41 289 2 14 13 90 25 170 11 80 23 161 26 180 7 48 54 377 60 419 2 19 6 46 9
60 2 14 7 46 10 71 3 25 10 72 15 105 5 33 12 85 16 115 4 30 8 62 9 70 1 8 8
16 16 17 8 1 291 4 629 7 338 2 640 7 670 10 202 20 249 25 281 31 13 3 51 10
84 16 199 36 431 113 550 184 324 191 542 476 679 887 189 566 134 1161 -143
1549 -219 305 -518 462 -966 505 -38 3 -74 9 -80 12 -13 8 -2255 10 -2259 3z
m1899 -855 c145 -8 247 -23 319 -47 165 -53 279 -182 322 -365 12 -53 15 -100
11 -204 -6 -160 -27 -242 -93 -370 -134 -259 -366 -415 -679 -456 -22 -2 -49
-7 -60 -9 -11 -2 -58 -7 -105 -10 -47 -4 -105 -9 -130 -11 -25 -3 -220 -7
-434 -11 l-389 -5 7 33 c3 19 8 54 12 79 3 25 9 70 14 100 5 30 12 75 15 100
7 54 26 189 30 210 3 16 17 114 20 140 3 23 17 123 20 140 1 8 6 40 10 70 4
30 9 64 11 75 2 11 6 40 9 65 3 25 9 59 12 75 6 32 8 40 17 120 3 28 8 61 11
74 2 12 7 44 10 70 3 25 8 60 11 76 3 17 7 39 9 50 2 11 4 20 4 20 11 4 939
-4 1016 -9z"/>
</g>
</svg>
